<svg width="800" height="800" viewBox="0 0 800 800" fill="none" xmlns="http://www.w3.org/2000/svg">
<g clip-path="url(#clip0_1_60)">
<path d="M400 800C179.439 800 0 620.561 0 400C0 179.439 179.439 0 400 0C620.561 0 800 179.439 800 400C800 620.561 620.561 800 400 800Z" fill="#EFB832"/>
<g opacity="0.5">
<path d="M400.002 738.489C213.358 738.489 61.5125 586.644 61.5125 400C61.5125 213.356 213.356 61.5109 400.002 61.5109C586.645 61.5109 738.491 213.355 738.491 400C738.491 586.645 586.645 738.489 400.002 738.489ZM400.002 147.819C260.948 147.819 147.82 260.947 147.82 400C147.82 539.053 260.948 652.181 400.002 652.181C539.055 652.181 652.183 539.053 652.183 400C652.183 260.947 539.053 147.819 400.002 147.819Z" fill="#AE8132"/>
</g>
<path d="M287.5 128.539C288.216 130.358 288.838 132.011 289.355 133.492C289.877 134.97 290.255 136.377 290.488 137.706C290.722 139.03 290.784 140.314 290.67 141.552C290.563 142.784 290.216 144.078 289.633 145.417C288.856 147.205 287.784 148.767 286.419 150.108C285.053 151.442 283.263 152.55 281.053 153.417C278.848 154.284 276.778 154.697 274.847 154.653C272.916 154.609 271.058 154.205 269.266 153.425C267.93 152.838 266.799 152.133 265.875 151.302C264.949 150.475 264.127 149.488 263.419 148.348C262.698 147.209 262.031 145.922 261.403 144.484C260.77 143.041 260.102 141.414 259.386 139.595C258.674 137.78 258.056 136.131 257.538 134.648C257.013 133.164 256.628 131.764 256.373 130.442C256.123 129.128 256.049 127.847 256.164 126.609C256.272 125.373 256.622 124.083 257.202 122.744C257.981 120.956 259.059 119.391 260.447 118.042C261.83 116.697 263.625 115.592 265.838 114.725C268.047 113.853 270.108 113.445 272.02 113.497C273.928 113.545 275.783 113.958 277.57 114.733C278.909 115.316 280.041 116.028 280.964 116.856C281.888 117.688 282.711 118.67 283.448 119.8C284.181 120.931 284.863 122.219 285.491 123.653C286.116 125.094 286.792 126.725 287.5 128.539ZM280.073 131.459C279.358 129.644 278.73 128.153 278.192 126.989C277.65 125.825 277.153 124.88 276.702 124.15C276.25 123.42 275.817 122.861 275.395 122.478C274.974 122.083 274.509 121.761 274 121.511C273.227 121.112 272.364 120.892 271.417 120.828C270.467 120.767 269.478 120.944 268.445 121.353C267.414 121.755 266.563 122.308 265.911 122.994C265.256 123.688 264.761 124.441 264.431 125.27C264.231 125.806 264.106 126.359 264.067 126.93C264.024 127.5 264.084 128.206 264.25 129.048C264.419 129.889 264.709 130.916 265.123 132.131C265.542 133.347 266.106 134.864 266.823 136.681C267.536 138.497 268.153 139.992 268.678 141.161C269.2 142.338 269.686 143.277 270.13 143.989C270.573 144.702 271.003 145.25 271.42 145.638C271.845 146.031 272.309 146.347 272.823 146.603C273.627 146.98 274.511 147.213 275.47 147.288C276.425 147.366 277.417 147.2 278.455 146.791C279.484 146.384 280.327 145.833 280.973 145.122C281.617 144.414 282.091 143.652 282.386 142.839C282.589 142.306 282.711 141.753 282.755 141.183C282.795 140.609 282.741 139.912 282.58 139.089C282.422 138.269 282.144 137.25 281.745 136.025C281.342 134.802 280.788 133.277 280.073 131.459Z" fill="#EFB832"/>
<path d="M325.117 139.064L302.816 119.197L309.509 143.386L301.819 145.516L290.906 106.103L297.773 104.205L320.059 124.02L313.378 99.8859L321.077 97.7594L331.984 137.166L325.117 139.064Z" fill="#EFB832"/>
<path d="M340.192 135.87L334.312 95.4016L360.967 91.5297L361.991 98.5781L343.237 101.303L344.612 110.791L360.587 108.475L361.606 115.516L345.639 117.838L347.069 127.673L365.825 124.948L366.852 131.992L340.192 135.87Z" fill="#EFB832"/>
<path d="M415.845 102.663C415.838 104.389 415.525 106.022 414.905 107.57C414.286 109.122 413.402 110.475 412.249 111.639C411.095 112.802 409.672 113.717 407.986 114.378C406.297 115.047 404.403 115.373 402.302 115.366L394.428 115.331L394.369 130.725L386.388 130.697L386.545 89.8L402.395 89.8625C404.502 89.8703 406.399 90.2125 408.083 90.8891C409.764 91.5625 411.175 92.4922 412.32 93.6609C413.463 94.8359 414.341 96.1984 414.945 97.75C415.553 99.3078 415.85 100.936 415.845 102.663ZM407.861 102.634C407.87 100.95 407.347 99.5875 406.299 98.5516C405.25 97.5125 403.805 96.9859 401.969 96.9844L394.5 96.9531L394.459 108.148L401.928 108.18C403.761 108.186 405.211 107.686 406.266 106.677C407.32 105.667 407.855 104.319 407.861 102.634Z" fill="#EFB832"/>
<path d="M421.38 131.322L425.964 90.6891L452.728 93.7047L451.931 100.781L433.097 98.6609L432.025 108.192L448.061 109.997L447.261 117.077L431.223 115.267L430.111 125.141L448.945 127.261L448.148 134.341L421.38 131.322Z" fill="#EFB832"/>
<path d="M478.311 140.856L468.199 112.748L462.536 137.205L454.756 135.402L463.984 95.5609L470.92 97.1688L481.052 125.22L486.7 100.825L494.48 102.628L485.255 142.466L478.311 140.856Z" fill="#EFB832"/>
<path d="M515.955 153.17L509.391 124.034L500.748 147.597L493.252 144.844L507.338 106.458L514.02 108.913L520.602 137.998L529.228 114.486L536.722 117.239L522.636 155.633L515.955 153.17Z" fill="#EFB832"/>
<path d="M551.77 151.159L544.278 166.159L537.186 162.622L544.678 147.616L544.458 120.548L552.214 124.42L551.688 142.58L565.784 131.192L573.541 135.064L551.77 151.159Z" fill="#EFB832"/>
<path d="M517.502 676.012C516.786 674.192 516.164 672.541 515.647 671.059C515.125 669.581 514.747 668.175 514.514 666.845C514.281 665.523 514.217 664.237 514.331 663.002C514.439 661.769 514.786 660.475 515.369 659.134C516.145 657.347 517.217 655.784 518.583 654.444C519.948 653.109 521.739 652.002 523.948 651.134C526.155 650.267 528.223 649.855 530.155 649.898C532.087 649.942 533.944 650.347 535.736 651.127C537.072 651.714 538.203 652.419 539.127 653.25C540.053 654.077 540.873 655.064 541.583 656.203C542.303 657.342 542.97 658.63 543.598 660.067C544.231 661.511 544.898 663.137 545.616 664.956C546.328 666.772 546.945 668.42 547.464 669.902C547.989 671.386 548.373 672.786 548.628 674.108C548.878 675.422 548.953 676.703 548.837 677.941C548.73 679.178 548.38 680.467 547.8 681.806C547.02 683.594 545.942 685.159 544.555 686.509C543.172 687.855 541.377 688.959 539.164 689.827C536.955 690.698 534.894 691.106 532.981 691.055C531.073 691.006 529.219 690.595 527.431 689.817C526.092 689.234 524.959 688.522 524.037 687.694C523.114 686.862 522.289 685.88 521.553 684.75C520.82 683.619 520.139 682.331 519.511 680.897C518.886 679.456 518.211 677.825 517.502 676.012ZM524.928 673.091C525.644 674.906 526.272 676.397 526.809 677.561C527.352 678.725 527.848 679.67 528.3 680.4C528.752 681.13 529.184 681.689 529.606 682.073C530.028 682.469 530.492 682.791 531.002 683.041C531.775 683.441 532.637 683.659 533.584 683.723C534.534 683.784 535.523 683.609 536.556 683.198C537.586 682.797 538.437 682.244 539.091 681.558C539.747 680.864 540.241 680.111 540.57 679.281C540.77 678.745 540.895 678.192 540.936 677.622C540.98 677.052 540.919 676.345 540.753 675.505C540.584 674.662 540.294 673.637 539.88 672.422C539.462 671.206 538.897 669.689 538.18 667.872C537.467 666.056 536.85 664.561 536.325 663.392C535.803 662.216 535.317 661.278 534.873 660.564C534.43 659.852 534 659.303 533.583 658.916C533.158 658.522 532.694 658.206 532.18 657.95C531.377 657.573 530.492 657.341 529.533 657.266C528.578 657.187 527.586 657.353 526.548 657.762C525.519 658.169 524.677 658.72 524.03 659.431C523.386 660.139 522.912 660.902 522.616 661.714C522.412 662.247 522.291 662.8 522.247 663.37C522.206 663.944 522.261 664.641 522.422 665.464C522.58 666.284 522.858 667.303 523.256 668.528C523.661 669.748 524.216 671.275 524.928 673.091Z" fill="#EFB832"/>
<path d="M479.884 665.488L502.186 685.355L495.492 661.166L503.183 659.036L514.095 698.448L507.228 700.347L484.942 680.531L491.623 704.666L483.925 706.792L473.017 667.386L479.884 665.488Z" fill="#EFB832"/>
<path d="M464.811 668.68L470.691 709.148L444.036 713.02L443.013 705.972L461.766 703.247L460.391 693.759L444.416 696.075L443.397 689.034L459.364 686.713L457.934 676.877L439.178 679.602L438.152 672.558L464.811 668.68Z" fill="#EFB832"/>
<path d="M389.156 701.887C389.164 700.161 389.477 698.528 390.097 696.98C390.716 695.428 391.6 694.075 392.753 692.912C393.906 691.75 395.33 690.834 397.016 690.173C398.705 689.505 400.598 689.178 402.7 689.186L410.572 689.22L410.631 673.827L418.613 673.855L418.455 714.752L402.605 714.689C400.498 714.681 398.602 714.339 396.917 713.662C395.236 712.989 393.825 712.059 392.68 710.891C391.538 709.716 390.659 708.353 390.055 706.802C389.45 705.242 389.153 703.614 389.156 701.887ZM397.142 701.916C397.133 703.6 397.656 704.962 398.705 705.998C399.753 707.037 401.198 707.563 403.034 707.566L410.503 707.597L410.544 696.402L403.075 696.37C401.244 696.364 399.792 696.864 398.738 697.873C397.681 698.883 397.147 700.231 397.142 701.916Z" fill="#EFB832"/>
<path d="M383.623 673.228L379.039 713.861L352.275 710.845L353.072 703.769L371.906 705.889L372.978 696.358L356.941 694.553L357.741 687.473L373.778 689.283L374.891 679.409L356.056 677.289L356.853 670.209L383.623 673.228Z" fill="#EFB832"/>
<path d="M326.692 663.694L336.805 691.802L342.467 667.345L350.247 669.148L341.019 708.989L334.083 707.381L323.952 679.33L318.303 703.725L310.523 701.922L319.748 662.084L326.692 663.694Z" fill="#EFB832"/>
<path d="M289.049 651.38L295.611 680.516L304.253 656.953L311.75 659.706L297.664 698.092L290.981 695.638L284.399 666.55L275.772 690.063L268.278 687.309L282.364 648.916L289.049 651.38Z" fill="#EFB832"/>
<path d="M253.231 653.391L260.723 638.391L267.816 641.928L260.323 656.934L260.544 684.002L252.788 680.13L253.314 661.97L239.217 673.358L231.461 669.486L253.231 653.391Z" fill="#EFB832"/>
<path d="M321.506 258.832C334.787 254.658 345.601 251.243 353.949 248.587C362.297 245.551 369.127 243.085 374.44 241.188C380.511 238.911 385.065 236.824 388.1 234.927L401.76 228.096C407.073 225.44 413.903 222.025 422.251 217.851C430.599 213.298 441.413 207.606 454.694 200.776C451.658 215.195 449.382 228.855 447.864 241.757C446.726 254.279 445.777 265.473 445.018 275.338C443.88 286.722 443.31 297.157 443.31 306.643C442.931 314.612 442.362 325.236 441.603 338.517C441.223 351.798 440.654 366.217 439.895 381.775C439.137 397.332 438.378 413.269 437.619 429.586C436.86 445.902 436.291 461.27 435.911 475.689C435.911 489.729 436.101 501.871 436.48 512.117C437.239 522.362 438.567 529.382 440.465 533.176C442.362 537.73 444.828 542.093 447.864 546.267C450.52 550.062 453.556 554.426 456.971 559.359C460.765 563.912 465.319 568.465 470.631 573.019C461.904 574.916 453.745 576.624 446.156 578.141C438.567 579.28 431.927 580.228 426.235 580.987C419.405 582.126 413.334 583.074 408.021 583.833C402.33 584.213 394.551 585.161 384.685 586.679C376.337 587.818 365.712 589.335 352.811 591.233C339.91 592.75 323.973 594.458 305 596.355C314.866 590.284 322.645 584.402 328.336 578.711C334.408 573.019 338.961 568.086 341.997 563.912C345.412 558.979 347.499 554.236 348.258 549.683C348.637 546.647 349.206 538.489 349.965 525.208C351.103 511.548 352.052 495.611 352.811 477.397C353.949 458.804 354.898 439.072 355.657 418.202C356.795 396.953 357.554 377.221 357.934 359.008C358.313 340.794 358.503 325.236 358.503 312.335C358.503 299.434 357.934 291.655 356.795 288.999C355.277 286.342 353.001 283.307 349.965 279.892C347.309 276.856 343.704 273.631 339.151 270.216C334.977 266.801 329.095 263.006 321.506 258.832Z" fill="#F2C65B"/>
<path d="M321.506 252.109C334.787 247.935 345.601 244.52 353.949 241.864C362.297 238.828 369.127 236.362 374.44 234.465C380.511 232.188 385.065 230.101 388.1 228.204L401.76 221.373C407.073 218.717 413.903 215.302 422.251 211.128C430.599 206.575 441.413 200.883 454.694 194.053C451.658 208.472 449.382 222.132 447.864 235.034C446.726 247.556 445.777 258.749 445.018 268.615C443.88 279.999 443.31 290.434 443.31 299.92C442.931 307.889 442.362 318.513 441.603 331.794C441.223 345.075 440.654 359.494 439.895 375.052C439.137 390.609 438.378 406.546 437.619 422.863C436.86 439.179 436.291 454.547 435.911 468.966C435.911 483.006 436.101 495.148 436.48 505.394C437.239 515.639 438.567 522.659 440.465 526.453C442.362 531.007 444.828 535.37 447.864 539.544C450.52 543.339 453.556 547.703 456.971 552.636C460.765 557.189 465.319 561.742 470.631 566.296C461.904 568.193 453.745 569.901 446.156 571.418C438.567 572.557 431.927 573.505 426.235 574.264C419.405 575.403 413.334 576.351 408.021 577.11C402.33 577.49 394.551 578.438 384.685 579.956C376.337 581.094 365.712 582.612 352.811 584.51C339.91 586.027 323.973 587.735 305 589.632C314.866 583.561 322.645 577.679 328.336 571.988C334.408 566.296 338.961 561.363 341.997 557.189C345.412 552.256 347.499 547.513 348.258 542.959C348.637 539.924 349.206 531.766 349.965 518.485C351.103 504.825 352.052 488.887 352.811 470.674C353.949 452.081 354.898 432.349 355.657 411.479C356.795 390.23 357.554 370.498 357.934 352.285C358.313 334.071 358.503 318.513 358.503 305.612C358.503 292.71 357.934 284.932 356.795 282.276C355.277 279.619 353.001 276.584 349.965 273.169C347.309 270.133 343.704 266.908 339.151 263.493C334.977 260.078 329.095 256.283 321.506 252.109Z" fill="#CC9322"/>
<path d="M103.067 414.937C111.317 414.937 118.005 408.25 118.005 400C118.005 391.75 111.317 385.062 103.067 385.062C94.8174 385.062 88.1296 391.75 88.1296 400C88.1296 408.25 94.8174 414.937 103.067 414.937Z" fill="#EFB832"/>
<path d="M693.939 414.937C702.189 414.937 708.876 408.25 708.876 400C708.876 391.75 702.189 385.062 693.939 385.062C685.689 385.062 679.001 391.75 679.001 400C679.001 408.25 685.689 414.937 693.939 414.937Z" fill="#EFB832"/>
<path opacity="0.06" d="M400.188 799.623C502.619 799.623 605.052 760.636 683.031 682.656C838.991 526.697 838.991 272.93 683.031 116.972C605.05 38.9891 502.619 0 400.188 0V799.623Z" fill="#040000"/>
</g>
<defs>
<clipPath id="clip0_1_60">
<rect width="800" height="800" fill="white"/>
</clipPath>
</defs>
</svg>
